<svg width="30" height="30" viewBox="0 0 30 30" fill="none" xmlns="http://www.w3.org/2000/svg">
<path d="M25.7504 11.5691V23.3963C25.7504 24.3923 25.1925 25.0001 24.2602 25.0001H17.1912C18.0228 25.0001 18.5566 24.5164 18.6608 23.7039H23.8639C24.2749 23.7039 24.4511 23.5282 24.4511 23.1181V11.8401C24.4511 11.4373 24.2749 11.2616 23.8639 11.2616H18.6813V9.95801H24.2602C25.1925 9.95801 25.7504 10.5732 25.7504 11.5691ZM22.6599 20.3205V21.8657C22.6599 22.0415 22.5425 22.166 22.3664 22.166H20.7734C20.5826 22.166 20.4725 22.0415 20.4725 21.8657V20.3205C20.4725 20.1374 20.5826 20.0203 20.7734 20.0203H22.3664C22.5425 20.0203 22.6599 20.1374 22.6599 20.3205ZM22.6599 16.7101V18.2554C22.6599 18.4311 22.5425 18.5556 22.3664 18.5556H20.7734C20.5826 18.5556 20.4725 18.4311 20.4725 18.2554V16.7101C20.4725 16.527 20.5826 16.4099 20.7734 16.4099H22.3664C22.5425 16.4099 22.6599 16.527 22.6599 16.7101ZM22.6599 13.0924V14.6449C22.6599 14.8207 22.5425 14.9452 22.3664 14.9452H20.7734C20.5826 14.9452 20.4725 14.8207 20.4725 14.6449V13.0924C20.4725 12.9167 20.5826 12.7995 20.7734 12.7995H22.3664C22.5425 12.7995 22.6599 12.9167 22.6599 13.0924Z" fill="#8E8E93"/>
<path d="M4 23.3962C4 24.3921 4.55789 25 5.49015 25H17.1912C18.1234 25 18.6813 24.3921 18.6813 23.3962V6.61846C18.6813 5.62248 18.1234 5.01465 17.1912 5.01465H5.49015C4.55789 5.01465 4 5.62248 4 6.61846V23.3962ZM5.2993 23.1179V6.88942C5.2993 6.48664 5.48281 6.31088 5.88655 6.31088H16.7948C17.2059 6.31088 17.382 6.48664 17.382 6.88942V23.1179C17.382 23.528 17.2059 23.7038 16.7948 23.7038H5.88655C5.48281 23.7038 5.2993 23.528 5.2993 23.1179ZM8.06672 24.3263H9.14581V21.2358C9.14581 21.0088 9.25592 20.8989 9.49081 20.8989H13.1978C13.4254 20.8989 13.5429 21.0088 13.5429 21.2358V24.3263H14.6219V20.9648C14.6219 20.1812 14.2696 19.8224 13.5208 19.8224H9.16783C8.41174 19.8224 8.06672 20.1812 8.06672 20.9648V24.3263ZM8.2062 10.5731H10.1295C10.3423 10.5731 10.4818 10.4266 10.4818 10.2069V8.33944C10.4818 8.12706 10.3423 7.9806 10.1295 7.9806H8.2062C7.99332 7.9806 7.86119 8.12706 7.86119 8.33944V10.2069C7.86119 10.4266 7.99332 10.5731 8.2062 10.5731ZM12.5445 10.5731H14.4678C14.6806 10.5731 14.8202 10.4266 14.8202 10.2069V8.33944C14.8202 8.12706 14.6806 7.9806 14.4678 7.9806H12.5445C12.3317 7.9806 12.1995 8.12706 12.1995 8.33944V10.2069C12.1995 10.4266 12.3317 10.5731 12.5445 10.5731ZM8.2062 14.4178H10.1295C10.3423 14.4178 10.4818 14.2713 10.4818 14.0516V12.1842C10.4818 11.9718 10.3423 11.8253 10.1295 11.8253H8.2062C7.99332 11.8253 7.86119 11.9718 7.86119 12.1842V14.0516C7.86119 14.2713 7.99332 14.4178 8.2062 14.4178ZM12.5445 14.4178H14.4678C14.6806 14.4178 14.8202 14.2713 14.8202 14.0516V12.1842C14.8202 11.9718 14.6806 11.8253 14.4678 11.8253H12.5445C12.3317 11.8253 12.1995 11.9718 12.1995 12.1842V14.0516C12.1995 14.2713 12.3317 14.4178 12.5445 14.4178ZM8.2062 18.2552H10.1295C10.3423 18.2552 10.4818 18.1161 10.4818 17.8964V16.0289C10.4818 15.8165 10.3423 15.6701 10.1295 15.6701H8.2062C7.99332 15.6701 7.86119 15.8165 7.86119 16.0289V17.8964C7.86119 18.1161 7.99332 18.2552 8.2062 18.2552ZM12.5445 18.2552H14.4678C14.6806 18.2552 14.8202 18.1161 14.8202 17.8964V16.0289C14.8202 15.8165 14.6806 15.6701 14.4678 15.6701H12.5445C12.3317 15.6701 12.1995 15.8165 12.1995 16.0289V17.8964C12.1995 18.1161 12.3317 18.2552 12.5445 18.2552Z" fill="#8E8E93"/>
</svg>
