<svg width="30" height="30" viewBox="0 0 30 30" fill="none" xmlns="http://www.w3.org/2000/svg">
<path d="M14.8674 24.9847C20.2709 24.9847 24.7423 20.4584 24.7423 14.9961C24.7423 9.52628 20.2634 5 14.8598 5C9.4638 5 5 9.52628 5 14.9961C5 20.4584 9.47138 24.9847 14.8674 24.9847ZM14.8674 23.5578C10.1838 23.5578 6.4172 19.7373 6.4172 14.9961C6.4172 10.2474 10.1762 6.4346 14.8598 6.4346C19.5509 6.4346 23.3251 10.2474 23.3251 14.9961C23.3251 19.7373 19.5586 23.5578 14.8674 23.5578Z" fill="#FEB101"/>
<path d="M9.4638 15.7326L13.7609 15.7403C13.92 15.7403 14.0261 15.8401 14.0261 16.0089V20.3049C14.0261 21.0874 14.8522 21.1642 15.1099 20.5965L19.5358 11.0606C19.8617 10.3702 19.2857 9.80246 18.6036 10.1247L9.19097 14.6356C8.615 14.9117 8.7211 15.7326 9.4638 15.7326Z" fill="#FEB101"/>
</svg>

