<svg width="30" height="30" viewBox="0 0 30 30" fill="none" xmlns="http://www.w3.org/2000/svg">
<path d="M14.8674 24.9847C20.2709 24.9847 24.7423 20.4584 24.7423 14.9961C24.7423 9.52628 20.2634 5 14.8598 5C9.4638 5 5 9.52628 5 14.9961C5 20.4584 9.47138 24.9847 14.8674 24.9847ZM14.8674 23.5578C10.1838 23.5578 6.4172 19.7373 6.4172 14.9961C6.4172 10.2474 10.1762 6.4346 14.8598 6.4346C19.5509 6.4346 23.3251 10.2474 23.3251 14.9961C23.3251 19.7373 19.5586 23.5578 14.8674 23.5578Z" fill="#8E8E93"/>
<path d="M9.62295 16.0012H14.8598C15.1932 16.0012 15.4509 15.7404 15.4509 15.4028V8.55971C15.4509 8.22983 15.1932 7.96899 14.8598 7.96899C14.5415 7.96899 14.2762 8.22983 14.2762 8.55971V14.8121H9.62295C9.28949 14.8121 9.0394 15.073 9.0394 15.4028C9.0394 15.7404 9.28949 16.0012 9.62295 16.0012Z" fill="#8E8E93"/>
</svg>
