<svg width="32" height="32" viewBox="0 0 32 32" fill="none" xmlns="http://www.w3.org/2000/svg">
<g clip-path="url(#clip0_25_885)">
<path d="M15.7878 31.9755C24.4334 31.9755 31.5876 24.7334 31.5876 15.9938C31.5876 7.24204 24.4214 0 15.7756 0C7.14209 0 0 7.24204 0 15.9938C0 24.7334 7.15421 31.9755 15.7878 31.9755Z" fill="black" fill-opacity="0.85"/>
<path d="M18.1304 9L17.5217 10.826L18.1304 11.4348L14.6646 14.9006C14.1725 14.6604 13.6354 14.4667 13.108 14.345C12.6802 14.2464 12.2632 14.1979 11.8829 14.2018C11.3773 14.207 10.9369 14.3051 10.6226 14.5012L17.4987 21.3774C17.8424 20.8266 17.8847 19.8883 17.6549 18.8919C17.5333 18.3646 17.3395 17.8275 17.0994 17.3354L20.5652 13.8695L21.174 14.4782L23.0001 13.8695L18.1304 9ZM13.0937 17.7367L9 23L14.2633 18.9063L13.0937 17.7367Z" fill="#FEB101"/>
</g>
<defs>
<clipPath id="clip0_25_885">
<rect width="32" height="32" fill="white"/>
</clipPath>
</defs>
</svg>
