<svg width="20" height="20" viewBox="0 0 20 20" fill="none" xmlns="http://www.w3.org/2000/svg">
<path d="M9.86737 19.9847C15.2709 19.9847 19.7423 15.4584 19.7423 9.99615C19.7423 4.52628 15.2634 0 9.85976 0C4.4638 0 0 4.52628 0 9.99615C0 15.4584 4.47138 19.9847 9.86737 19.9847ZM9.86737 18.5578C5.18377 18.5578 1.4172 14.7373 1.4172 9.99615C1.4172 5.24742 5.1762 1.4346 9.85976 1.4346C14.5509 1.4346 18.3251 5.24742 18.3251 9.99615C18.3251 14.7373 14.5586 18.5578 9.86737 18.5578Z" fill="#FEB101"/>
<path d="M6.99519 15.0826L9.85988 12.9652L12.7246 15.0826C13.2248 15.4662 13.7629 15.0749 13.5659 14.4689L12.4442 11.0473L15.3317 8.96064C15.7788 8.6307 15.6424 7.94029 15.0058 7.94792L11.459 7.97097L10.3753 4.53407C10.1934 3.9587 9.52647 3.9587 9.35212 4.53407L8.26838 7.97097L4.71402 7.94792C4.085 7.94029 3.92584 8.61536 4.39572 8.96828L7.28317 11.0473L6.16154 14.4689C5.96449 15.0749 6.50257 15.4662 6.99519 15.0826Z" fill="#FEB101"/>
</svg>
