<svg width="46" height="46" viewBox="0 0 46 46" fill="none" xmlns="http://www.w3.org/2000/svg">
<path d="M29.68 18.81H5.95544C4.68524 18.81 3.98328 19.4928 3.98328 20.7393V32.2716C3.98328 33.5071 4.68524 34.2008 5.95544 34.2008H34.0446C35.3148 34.2008 36.0167 33.5071 36.0167 32.2716V22.3001L37.9841 20.3862C37.9949 20.5248 38 20.668 38 20.8152V32.1849C38 34.6561 36.5738 36 34.0334 36H5.96657C3.42618 36 2 34.6561 2 32.1849V20.8152C2 18.344 3.42618 17 5.96657 17H31.5421L29.68 18.81Z" fill="#9747FF"/>
<path d="M20.9942 28C22.0945 28 23 27.106 23 25.9943C23 24.894 22.0945 24 20.9942 24C19.8941 24 19 24.894 19 25.9943C19 27.106 19.8941 28 20.9942 28Z" fill="#9747FF"/>
<path d="M15.0057 28C16.106 28 17 27.106 17 25.9943C17 24.894 16.106 24 15.0057 24C13.894 24 13 24.894 13 25.9943C13 27.106 13.894 28 15.0057 28Z" fill="#9747FF"/>
<path d="M9.00574 28C10.106 28 11 27.106 11 25.9943C11 24.894 10.106 24 9.00574 24C7.89398 24 7 24.894 7 25.9943C7 27.106 7.89398 28 9.00574 28Z" fill="#9747FF"/>
</svg>
