<svg width="46" height="46" viewBox="0 0 46 46" fill="none" xmlns="http://www.w3.org/2000/svg">
<path d="M15.5346 7.97579C16.3631 7.97579 16.9959 7.33647 16.9959 6.4879C16.9959 5.66258 16.34 5 15.5346 5C14.729 5 14.0617 5.6742 14.0617 6.4879C14.0617 7.31322 14.7175 7.97579 15.5346 7.97579ZM8.49221 12.0675C9.33223 12.0675 9.96511 11.4398 9.96511 10.5796C9.96511 9.7543 9.30921 9.10334 8.49221 9.10334C7.69822 9.10334 7.03082 9.77755 7.03082 10.5796C7.03082 11.4166 7.67522 12.0675 8.49221 12.0675ZM22.5653 12.0675C23.3939 12.0675 24.0268 11.4398 24.0268 10.5796C24.0268 9.7543 23.3823 9.10334 22.5653 9.10334C21.7598 9.10334 21.0924 9.77755 21.0924 10.5796C21.0924 11.4166 21.7484 12.0675 22.5653 12.0675ZM1.4614 16.2173C2.30141 16.2173 2.93431 15.5896 2.93431 14.7411C2.93431 13.9158 2.27839 13.2648 1.4614 13.2648C0.655903 13.2648 0 13.9274 0 14.7411C0 15.5664 0.644396 16.2173 1.4614 16.2173ZM29.5387 16.2173C30.3672 16.2173 31 15.5896 31 14.7411C31 13.9041 30.3556 13.2648 29.5387 13.2648C28.7447 13.2648 28.0772 13.939 28.0772 14.7411C28.0772 15.5664 28.7217 16.2173 29.5387 16.2173ZM1.4614 24.4705C2.28991 24.4705 2.93431 23.8196 2.93431 22.9942C2.93431 22.1689 2.27839 21.5063 1.4614 21.5063C0.655903 21.5063 0 22.1806 0 22.9942C0 23.8196 0.644396 24.4705 1.4614 24.4705ZM29.5387 24.4705C30.3672 24.4705 31 23.8312 31 22.9942C31 22.1573 30.3556 21.5063 29.5387 21.5063C28.7447 21.5063 28.0772 22.1806 28.0772 22.9942C28.0772 23.8196 28.7217 24.4705 29.5387 24.4705ZM1.4614 32.7237C2.30141 32.7237 2.93431 32.0844 2.93431 31.2358C2.93431 30.4104 2.27839 29.7595 1.4614 29.7595C0.66741 29.7595 0 30.4337 0 31.2358C0 32.0727 0.644396 32.7237 1.4614 32.7237ZM29.5387 32.7237C30.3786 32.7237 31 32.096 31 31.2358C31 30.4104 30.3556 29.7595 29.5387 29.7595C28.7447 29.7595 28.0772 30.4337 28.0772 31.2358C28.0772 32.0611 28.7217 32.7237 29.5387 32.7237ZM8.49221 36.8735C9.33223 36.8735 9.96511 36.2458 9.96511 35.3973C9.96511 34.5719 9.30921 33.9094 8.49221 33.9094C7.69822 33.9094 7.03082 34.5836 7.03082 35.3973C7.03082 36.2226 7.67522 36.8735 8.49221 36.8735ZM22.5653 36.8735C23.3939 36.8735 24.0268 36.2458 24.0268 35.3973C24.0268 34.5719 23.3823 33.9094 22.5653 33.9094C21.7598 33.9094 21.0924 34.5836 21.0924 35.3973C21.0924 36.2226 21.7484 36.8735 22.5653 36.8735ZM15.5346 40.9768C16.3631 40.9768 16.9959 40.3376 16.9959 39.4889C16.9959 38.6636 16.34 38.0127 15.5346 38.0127C14.729 38.0127 14.0617 38.6869 14.0617 39.4889C14.0617 40.3259 14.7175 40.9768 15.5346 40.9768Z" fill="#9747FF"/>
<path d="M15.0058 16.9576C16.1186 16.9576 16.9905 16.055 16.9905 14.9029C16.9905 13.7746 16.0956 12.8363 15.0058 12.8363C13.9159 12.8363 13.0096 13.7865 13.0096 14.9029C13.0096 16.0312 13.9044 16.9576 15.0058 16.9576ZM7.9847 21.1739C9.109 21.1739 9.98088 20.2594 9.98088 19.1074C9.98088 17.9672 9.08605 17.0408 7.9847 17.0408C6.91778 17.0408 6 17.9909 6 19.1074C6 20.2475 6.88337 21.1739 7.9847 21.1739ZM22.0153 21.1739C23.1281 21.1739 24 20.2594 24 19.1074C24 17.9672 23.1052 17.0408 22.0153 17.0408C20.9369 17.0408 20.0191 17.9909 20.0191 19.1074C20.0191 20.2475 20.914 21.1739 22.0153 21.1739ZM7.9847 29.6184C9.09752 29.6184 9.98088 28.7158 9.98088 27.5637C9.98088 26.4236 9.08605 25.4972 7.9847 25.4972C6.90631 25.4972 6 26.4354 6 27.5637C6 28.6921 6.89483 29.6184 7.9847 29.6184ZM22.0153 29.6184C23.1281 29.6184 24 28.7158 24 27.5637C24 26.4236 23.1052 25.4972 22.0153 25.4972C20.9255 25.4972 20.0191 26.4354 20.0191 27.5637C20.0191 28.6921 20.914 29.6184 22.0153 29.6184ZM15.0058 33.8228C16.1186 33.8228 16.9905 32.9083 16.9905 31.7563C16.9905 30.6279 16.0956 29.7015 15.0058 29.7015C13.9274 29.7015 13.0096 30.6518 13.0096 31.7563C13.0096 32.8964 13.9044 33.8228 15.0058 33.8228Z" fill="#9747FF"/>
<path d="M15.5062 25.8278C16.8944 25.8278 18 24.7229 18 23.3356C18 21.9606 16.8698 20.8311 15.5062 20.8311C14.1425 20.8311 13 21.9729 13 23.3356C13 24.6983 14.1302 25.8278 15.5062 25.8278Z" fill="#9747FF"/>
</svg>
