<svg width="46" height="46" viewBox="0 0 46 46" fill="none" xmlns="http://www.w3.org/2000/svg">
<path d="M17.5115 41.0558C21.0623 41.0558 24 38.1154 24 34.55C24 30.9961 21.0623 28.0558 17.5115 28.0558C13.9146 28.0558 11 30.9961 11 34.55C11 38.1154 13.9146 41.0558 17.5115 41.0558ZM17.5115 39.0415C14.9671 39.0415 13.0009 37.0851 13.0009 34.55C13.0009 32.0496 14.9671 30.0121 17.5115 30.0121C20.0213 30.0121 21.9991 32.0496 21.9991 34.55C21.9991 37.0851 20.0213 39.0415 17.5115 39.0415Z" fill="#9747FF"/>
<path d="M28.5115 29.9091C32.0623 29.9091 35 26.9572 35 23.4033C35 19.8494 32.0623 16.9091 28.5115 16.9091C24.9146 16.9091 22 19.8494 22 23.4033C22 26.9572 24.9146 29.9091 28.5115 29.9091ZM28.5115 27.8948C25.9671 27.8948 24.0009 25.9269 24.0009 23.4033C24.0009 20.9029 25.9671 18.8654 28.5115 18.8654C31.0213 18.8654 32.9991 20.9029 32.9991 23.4033C32.9991 25.9269 31.0213 27.8948 28.5115 27.8948Z" fill="#9747FF"/>
<path d="M6.51739 29.9091C10.0713 29.9091 13 26.9572 13 23.4033C13 19.8494 10.0713 16.9091 6.51739 16.9091C2.91719 16.9091 0 19.8494 0 23.4033C0 26.9572 2.91719 29.9091 6.51739 29.9091ZM6.51739 27.8948C3.97063 27.8948 2.00268 25.9269 2.00268 23.4033C2.00268 20.9029 3.97063 18.8654 6.51739 18.8654C9.02942 18.8654 11.0089 20.9029 11.0089 23.4033C11.0089 25.9269 9.02942 27.8948 6.51739 27.8948Z" fill="#9747FF"/>
<path d="M17.5115 17.9091C21.0623 17.9091 24 14.9687 24 11.4033C24 7.86099 21.0623 4.90906 17.5115 4.90906C13.9146 4.90906 11 7.86099 11 11.4033C11 14.9687 13.9146 17.9091 17.5115 17.9091Z" fill="#9747FF"/>
</svg>
