<svg width="46" height="46" viewBox="0 0 46 46" fill="none" xmlns="http://www.w3.org/2000/svg">
<path d="M9.25368 8.92779C10.3974 8.92779 11.3332 8.05252 11.3332 6.95843C11.3332 5.87527 10.3974 5 9.25368 5C8.09841 5 7.1742 5.87527 7.1742 6.95843C7.1742 8.05252 8.09841 8.92779 9.25368 8.92779ZM2.07947 15C3.23474 15 4.15896 14.1247 4.15896 13.0306C4.15896 11.9475 3.23474 11.0613 2.07947 11.0613C0.924212 11.0613 0 11.9475 0 13.0306C0 14.1247 0.924212 15 2.07947 15ZM16.5203 15C17.664 15 18.5998 14.1247 18.5998 13.0306C18.5998 11.9475 17.664 11.0613 16.5203 11.0613C15.365 11.0613 14.4408 11.9475 14.4408 13.0306C14.4408 14.1247 15.365 15 16.5203 15ZM22.9205 15C24.0757 15 25 14.1247 25 13.0306C25 11.9475 24.0757 11.0613 22.9205 11.0613C21.7767 11.0613 20.8525 11.9475 20.8525 13.0306C20.8525 14.1247 21.7767 15 22.9205 15ZM22.9205 8.92779C24.0757 8.92779 25 8.05252 25 6.95843C25 5.87527 24.0757 5 22.9205 5C21.7767 5 20.8525 5.87527 20.8525 6.95843C20.8525 8.05252 21.7767 8.92779 22.9205 8.92779Z" fill="#9747FF"/>
<path d="M13.6481 40C19.7731 40 24 36.2169 24 29.6756V26.7319C24 23.494 22.4396 21.6406 19.7032 21.6188C19.3772 20.6049 18.4805 19.9726 17.2462 19.9726C16.7804 19.9726 16.338 20.0489 15.9071 20.1906C15.5461 19.1004 14.5796 18.4244 13.2988 18.4244C12.9378 18.4244 12.5536 18.4789 12.1809 18.588V13.8019C12.1809 12.1011 10.9583 11 9.31644 11C7.63966 11 6.42865 12.1011 6.42865 13.8019V25.8707C6.42865 25.947 6.39372 26.0015 6.3122 26.0015C6.25398 26.0015 6.20741 25.9688 6.18412 25.8925L4.9964 23.1887C4.50734 22.0985 3.64566 21.5316 2.62095 21.5316C1.22363 21.5316 -0.0106679 22.3819 0.000976435 23.8538C-0.0106679 24.2462 0.0824867 24.7695 0.245507 25.2165L2.94699 32.3249C4.85666 37.3835 8.48969 40 13.6481 40ZM13.7064 38.332C9.49111 38.332 6.28891 36.4022 4.53062 31.7906L1.84078 24.7041C1.75927 24.4861 1.7127 24.3008 1.7127 24.0391C1.7127 23.5049 2.14353 23.0579 2.79561 23.0579C3.31961 23.0579 3.6573 23.3632 3.89019 23.8974L5.90465 28.2038C6.20741 28.847 6.62661 29.0651 7.13895 29.0651C7.73282 29.0651 8.16365 28.6399 8.16365 28.0293V13.6929C8.16365 13.0169 8.62943 12.559 9.31644 12.559C10.0035 12.559 10.4459 13.0169 10.4459 13.6929V23.8756C10.4459 24.3226 10.8186 24.6606 11.2843 24.6606C11.7501 24.6606 12.0995 24.3226 12.0995 23.8756V20.1797C12.4022 20.0597 12.7748 19.9835 13.0892 19.9835C13.9043 19.9835 14.3817 20.4849 14.3817 21.3027V24.4097C14.3817 24.9004 14.7893 25.2057 15.2318 25.2057C15.6627 25.2057 16.0468 24.9004 16.0468 24.4097V21.7387C16.338 21.6188 16.7106 21.5425 17.025 21.5425C17.8517 21.5425 18.3292 22.0331 18.3292 22.8507V24.9549C18.3292 25.4346 18.725 25.7398 19.1791 25.7398C19.5984 25.7398 19.9943 25.4346 19.9943 24.9549V23.2759C21.4615 23.2759 22.2766 24.5952 22.2766 26.95V29.5011C22.2766 35.203 18.9347 38.332 13.7064 38.332Z" fill="#9747FF"/>
</svg>
