<svg width="64" height="64" viewBox="0 0 64 64" fill="none" xmlns="http://www.w3.org/2000/svg">
<path d="M31.9932 50.2139C41.7196 50.2139 49.768 41.9634 49.768 32.007C49.768 22.0366 41.706 13.7861 31.9795 13.7861C22.2668 13.7861 14.232 22.0366 14.232 32.007C14.232 41.9634 22.2804 50.2139 31.9932 50.2139ZM31.9932 47.6129C23.5627 47.6129 16.7829 40.6491 16.7829 32.007C16.7829 23.351 23.5491 16.4011 31.9795 16.4011C40.4236 16.4011 47.2171 23.351 47.2171 32.007C47.2171 40.6491 40.4374 47.6129 31.9932 47.6129Z" fill="white"/>
<path d="M28.6648 39.0548L38.7049 32.944C39.4143 32.5105 39.4007 31.5316 38.7049 31.098L28.6648 24.9592C27.9554 24.5257 27.0142 24.8753 27.0142 25.6863V38.3417C27.0142 39.1528 27.9009 39.5302 28.6648 39.0548Z" fill="white"/>
</svg>
