<svg width="70" height="24" viewBox="0 0 70 24" fill="none" xmlns="http://www.w3.org/2000/svg">
<path d="M9.81667 8.97797C10.9786 8.81501 11.875 7.76769 11.875 6.5C11.875 5.11929 10.8117 4 9.5 4C8.18832 4 7.125 5.11929 7.125 6.5C7.125 7.76769 8.02137 8.81501 9.18333 8.97797V13.1953L6.35036 10.2132C7.06252 9.23308 6.99282 7.82533 6.14124 6.92893C5.21375 5.95262 3.70998 5.95262 2.78249 6.92893C1.85499 7.90524 1.85499 9.48815 2.78249 10.4645C3.63406 11.3609 4.97142 11.4342 5.90252 10.6846L8.73549 13.6667H4.72907C4.57426 12.4435 3.57931 11.5 2.375 11.5C1.06332 11.5 0 12.6193 0 14C-1.6115e-07 15.3807 1.06332 16.5 2.375 16.5C3.57931 16.5 4.57426 15.5565 4.72907 14.3333H8.73549L5.90253 17.3154C4.97142 16.5658 3.63407 16.6391 2.7825 17.5355C1.855 18.5118 1.855 20.0948 2.7825 21.0711C3.70999 22.0474 5.21376 22.0474 6.14125 21.0711C6.99283 20.1747 7.06254 18.7669 6.35036 17.7868L9.18333 14.8047V19.022C8.02137 19.185 7.125 20.2323 7.125 21.5C7.125 22.8807 8.18832 24 9.5 24C10.8117 24 11.875 22.8807 11.875 21.5C11.875 20.2323 10.9786 19.185 9.81667 19.022V14.8047L12.6496 17.7868C11.9375 18.7669 12.0072 20.1747 12.8588 21.0711C13.7863 22.0474 15.29 22.0474 16.2175 21.0711C17.145 20.0948 17.145 18.5118 16.2175 17.5355C15.3659 16.6391 14.0286 16.5658 13.0975 17.3154L10.2645 14.3333H14.2709C14.4257 15.5565 15.4207 16.5 16.625 16.5C17.9367 16.5 19 15.3807 19 14C19 12.6193 17.9367 11.5 16.625 11.5C15.4207 11.5 14.4257 12.4435 14.2709 13.6667H10.2645L13.0975 10.6846C14.0286 11.4342 15.3659 11.3609 16.2175 10.4645C17.145 9.48816 17.145 7.90524 16.2175 6.92893C15.29 5.95262 13.7862 5.95262 12.8587 6.92893C12.0072 7.82533 11.9375 9.23308 12.6496 10.2132L9.81667 13.1952V8.97797Z" fill="#FFB101"/>
<path d="M26 23.3359C31.3395 23.3359 35.668 19.0074 35.668 13.668H26V23.3359Z" fill="#336BB7"/>
<path d="M35.668 13.668C35.668 8.3285 39.9965 4 45.3359 4L45.3359 13.668L35.668 13.668Z" fill="#336BB7"/>
<path d="M35.668 13.668C30.3285 13.668 26 9.33947 26 4L35.668 4.00001L35.668 13.668Z" fill="#336BB7"/>
<path d="M45.3359 23.3359C45.3359 17.9965 41.0074 13.668 35.668 13.668L35.668 23.3359L45.3359 23.3359Z" fill="#336BB7"/>
<path fill-rule="evenodd" clip-rule="evenodd" d="M59.4818 4H65.7758L61.6991 9.71504H69.3359L55.8008 24L59.9283 14.3677H52.3359L59.4818 4Z" fill="#FFB101"/>
</svg>
