<svg width="46" height="46" viewBox="0 0 46 46" fill="none" xmlns="http://www.w3.org/2000/svg">
<path d="M22.6949 45.9647C35.1231 45.9647 45.4072 35.5543 45.4072 22.9911C45.4072 10.4104 35.1057 0 22.6774 0C10.2667 0 0 10.4104 0 22.9911C0 35.5543 10.2842 45.9647 22.6949 45.9647ZM22.6949 42.6828C11.9227 42.6828 3.25956 33.8958 3.25956 22.9911C3.25956 12.0691 11.9053 3.29958 22.6774 3.29958C33.4672 3.29958 42.1476 12.0691 42.1476 22.9911C42.1476 33.8958 33.4847 42.6828 22.6949 42.6828Z" fill="#8E8E93"/>
<path d="M12.2887 34.5839H33.0663C33.868 34.5839 34.2515 34.0544 34.2515 33.2782C34.2515 30.7903 30.5562 24.2087 22.6774 24.2087C14.8162 24.2087 11.1208 30.7903 11.1208 33.2782C11.1208 34.0544 11.4869 34.5839 12.2887 34.5839ZM22.6774 22.356C25.8673 22.3737 28.4296 19.6387 28.4296 16.0038C28.4296 12.5807 25.8673 9.75757 22.6774 9.75757C19.4877 9.75757 16.9253 12.5807 16.9253 16.0038C16.9253 19.6387 19.4877 22.3383 22.6774 22.356Z" fill="#8E8E93"/>
</svg>
