<svg width="18" height="18" viewBox="0 0 18 18" fill="none" xmlns="http://www.w3.org/2000/svg">
<path d="M0.634706 5.80487C1.0412 5.80487 1.26228 5.56661 1.26228 5.15506V2.87347C1.26228 1.83376 1.80428 1.29946 2.80269 1.29946H5.09904C5.50554 1.29946 5.74088 1.06842 5.74088 0.664083C5.74088 0.252531 5.50554 0.0214844 5.09904 0.0214844H2.77416C0.934229 0.0214844 0 0.952895 0 2.80127V5.15506C0 5.56661 0.228209 5.80487 0.634706 5.80487ZM17.1228 5.80487C17.5365 5.80487 17.7575 5.56661 17.7575 5.15506V2.80127C17.7575 0.96733 16.8304 0.0214844 14.9834 0.0214844H12.6585C12.252 0.0214844 12.0166 0.252531 12.0166 0.664083C12.0166 1.06842 12.252 1.29946 12.6585 1.29946H14.9548C15.9318 1.29946 16.4952 1.83376 16.4952 2.87347V5.15506C16.4952 5.56661 16.7234 5.80487 17.1228 5.80487ZM2.77416 17.9998H5.09904C5.50554 17.9998 5.74088 17.7688 5.74088 17.3572C5.74088 16.9529 5.50554 16.7218 5.09904 16.7218H2.80269C1.80428 16.7218 1.26228 16.1876 1.26228 15.1478V12.8663C1.26228 12.4547 1.03407 12.2164 0.634706 12.2164C0.221077 12.2164 0 12.4547 0 12.8663V15.22C0 17.0684 0.934229 17.9998 2.77416 17.9998ZM12.6585 17.9998H14.9834C16.8304 17.9998 17.7575 17.0539 17.7575 15.22V12.8663C17.7575 12.4547 17.5293 12.2164 17.1228 12.2164C16.7163 12.2164 16.4952 12.4547 16.4952 12.8663V15.1478C16.4952 16.1876 15.9318 16.7218 14.9548 16.7218H12.6585C12.252 16.7218 12.0166 16.9529 12.0166 17.3572C12.0166 17.7688 12.252 17.9998 12.6585 17.9998Z" fill="#FEB101"/>
<path d="M3.7227 9.97094L7.92318 9.97819L7.93027 14.1515C7.93027 14.7291 8.19414 15.0396 8.66485 15.0396C8.99292 15.0396 9.27104 14.823 9.46356 14.3897L13.6284 5.34281C13.7211 5.14065 13.7781 4.9457 13.7781 4.78686C13.7781 4.36808 13.4715 4.05762 13.0579 4.05762C12.8867 4.05762 12.7013 4.11538 12.5088 4.20202L3.50162 8.44027C3.12365 8.61356 2.91684 8.89515 2.91684 9.22729C2.91684 9.6966 3.20923 9.97094 3.7227 9.97094ZM4.85661 8.93127L12.5016 5.35003L8.95724 13.0973L8.97149 9.42945C8.97149 9.12618 8.76472 8.90958 8.45092 8.90958L4.85661 8.93127Z" fill="#FEB101"/>
</svg>
