<svg width="18" height="18" viewBox="0 0 18 18" fill="none" xmlns="http://www.w3.org/2000/svg">
<path d="M8.88063 17.9862C13.7438 17.9862 17.768 13.9125 17.768 8.99653C17.768 4.07365 13.737 0 8.87378 0C4.01742 0 0 4.07365 0 8.99653C0 13.9125 4.02424 17.9862 8.88063 17.9862ZM8.88063 16.702C4.66539 16.702 1.27548 13.2636 1.27548 8.99653C1.27548 4.72267 4.65858 1.29114 8.87378 1.29114C13.0958 1.29114 16.4926 4.72267 16.4926 8.99653C16.4926 13.2636 13.1027 16.702 8.88063 16.702Z" fill="#FEB101"/>
<path d="M4.16048 9.90088H8.8736C9.17374 9.90088 9.40562 9.66615 9.40562 9.36234V3.20352C9.40562 2.90663 9.17374 2.67188 8.8736 2.67188C8.58717 2.67188 8.34844 2.90663 8.34844 3.20352V8.83066H4.16048C3.86037 8.83066 3.63528 9.06545 3.63528 9.36234C3.63528 9.66615 3.86037 9.90088 4.16048 9.90088Z" fill="#FEB101"/>
</svg>
