<svg width="12" height="12" viewBox="0 0 12 12" fill="none" xmlns="http://www.w3.org/2000/svg">
<path fill-rule="evenodd" clip-rule="evenodd" d="M6.35276 0.146447C6.1575 -0.0488155 5.84092 -0.0488155 5.64565 0.146447C5.45039 0.341709 5.45039 0.658291 5.64565 0.853553L10.2935 5.50138H0.499207C0.223064 5.50138 -0.000793457 5.72524 -0.000793457 6.00138C-0.000793457 6.27752 0.223064 6.50138 0.499207 6.50138H10.2915L5.64565 11.1473C5.45039 11.3425 5.45039 11.6591 5.64565 11.8544C5.84092 12.0496 6.1575 12.0496 6.35276 11.8544L11.8307 6.37639C11.9345 6.28477 12 6.15072 12 6.00138C12 5.9334 11.9864 5.86859 11.9619 5.8095C11.9375 5.75035 11.9012 5.69492 11.8532 5.64685L6.35276 0.146447Z" fill="white"/>
</svg>
