<svg width="33" height="35" viewBox="0 0 33 35" fill="none" xmlns="http://www.w3.org/2000/svg">
<path d="M20.5025 4.95954L19.43 6.30328C17.116 5.21179 14.5662 4.70002 12.1067 4.9611C6.32568 5.57478 3.25468 10.0958 3.83052 15.5204C4.57137 22.4994 10.9224 28.9035 19.8093 29.0427C20.335 29.0494 20.6298 29.4033 20.6702 29.7842C20.7139 30.1958 20.4443 30.6617 19.7943 30.6473C11.676 30.8638 3.1898 24.7071 2.23807 15.7415C1.55842 9.33898 5.2981 4.03917 11.9748 3.33041C14.8424 3.02601 17.8263 3.63925 20.5025 4.95954ZM29.5308 17.0705C30.0258 21.7334 27.1782 25.1585 22.7711 25.6264C19.7391 25.9482 16.2971 24.861 13.5747 22.8123L15.1888 21.8384C17.492 23.4649 20.2012 24.3481 22.5778 24.0958C25.8856 23.7447 28.3833 21.0958 27.9736 17.2358C27.7002 14.6603 26.5191 12.267 24.7772 10.2946L25.8298 8.98174C27.8312 11.2121 29.2032 13.9843 29.5308 17.0705Z" fill="white"/>
<path d="M14.7127 20.0323L25.1316 7.0871L23.1528 5.47887L12.744 18.423L11.8696 20.9981C11.7959 21.2614 12.076 21.5074 12.3153 21.3696L14.7127 20.0323ZM25.9581 6.06978L26.8564 4.96313C27.296 4.41593 27.2453 3.74712 26.7038 3.33471L26.4058 3.11097C25.9299 2.74267 25.2771 2.81198 24.8654 3.33578L23.9783 4.45146L25.9581 6.06978Z" fill="white"/>
</svg>
