<svg width="270" height="360" viewBox="0 0 270 360" fill="none" xmlns="http://www.w3.org/2000/svg">
<g clip-path="url(#clip0_25_632)">
<rect width="270" height="360" rx="24" fill="#3A3A3C"/>
<path opacity="0.65" d="M-135.422 128.097C-136.104 114.075 -119.686 106.036 -109.028 115.172L-12.9131 197.565C-9.93886 200.114 -6.13253 201.484 -2.21564 201.415L42.9667 200.612C45.253 200.571 47.5215 201.021 49.6193 201.931L80.2697 215.23C94.0099 221.191 92.7594 241.075 78.3806 245.268L-25.3858 275.528C-29.3293 276.678 -33.5641 276.267 -37.2131 274.38L-109.576 236.969C-113.868 234.75 -116.927 230.71 -117.9 225.978L-134.368 145.868C-134.534 145.062 -134.637 144.245 -134.677 143.423L-135.422 128.097Z" fill="url(#paint0_linear_25_632)"/>
<path d="M53.9135 117.109C52.2797 116.238 51.574 114.395 52.083 112.702C53.7051 107.308 54.3572 100.998 54.0387 93.7751C53.7131 85.1321 51.3063 75.9924 46.8191 66.3552C42.9499 57.9181 38.1472 51.0099 32.4107 45.6312C31.0519 44.3575 30.6917 42.3945 31.6456 40.8322C32.5809 39.3006 34.5177 38.5834 36.3501 39.0035C44.1085 40.7821 52.3003 41.3201 60.9253 40.6176C70.8522 39.7846 80.1746 37.4033 88.8925 33.4738C96.6292 29.9576 103.005 25.7996 108.021 20.9997C109.335 19.7422 111.388 19.3995 113.022 20.2709C114.673 21.1518 115.397 23.0082 114.885 24.72C113.728 28.5844 113.033 32.801 112.801 37.3696C112.56 43.0358 113.096 48.8933 114.41 54.9428C115.864 60.9561 118 66.8312 120.815 72.5677C124.523 80.0166 129.084 86.2932 134.499 91.398C135.827 92.6503 136.169 94.5741 135.233 96.1055C134.284 97.6599 132.297 98.3558 130.442 97.9114C125.725 96.7806 120.497 96.2265 114.76 96.2487C107.799 96.324 100.865 97.1375 93.9559 98.6893C87.0991 100.157 80.9231 102.267 75.4278 105.018C68.5984 108.443 63.0917 112.214 58.9081 116.333C57.6103 117.61 55.5497 117.982 53.9135 117.109Z" fill="url(#paint1_linear_25_632)"/>
<path opacity="0.65" d="M-21.4219 284.299C-19.5613 275.66 -11.0501 270.166 -2.41166 272.026L73.9818 288.481L192.163 302.547C204.938 304.067 210.786 319.278 202.319 328.964L143.758 395.962C141.895 398.094 139.499 399.693 136.815 400.596L47.2054 430.758C44.4755 431.677 41.5482 431.842 38.7324 431.235L-33.3589 415.708C-41.9973 413.847 -47.4919 405.336 -45.6313 396.697L-21.4219 284.299Z" fill="url(#paint2_linear_25_632)"/>
<rect opacity="0.65" x="92" y="117.858" width="162" height="152" rx="16" transform="rotate(-6.32867 92 117.858)" fill="url(#paint3_linear_25_632)"/>
<path d="M202 -25C148 -12.5 41.5002 13.4 47.5002 17C55.0002 21.5 448.5 32 59 215.5C6.5 240.234 22.6001 160.1 153 174.5C283.4 188.9 105.333 341.833 0 416.5" stroke="white" stroke-width="2"/>
</g>
<defs>
<linearGradient id="paint0_linear_25_632" x1="-122.977" y1="111.431" x2="-81.6515" y2="251.596" gradientUnits="userSpaceOnUse">
<stop stop-color="#FF9900"/>
<stop offset="1" stop-color="#D65C2B"/>
</linearGradient>
<linearGradient id="paint1_linear_25_632" x1="69.7379" y1="9.37502" x2="84.5969" y2="118.519" gradientUnits="userSpaceOnUse">
<stop stop-color="#FF9900"/>
<stop offset="1" stop-color="#D65C2B"/>
</linearGradient>
<linearGradient id="paint2_linear_25_632" x1="-8.33657" y1="285.034" x2="64.2975" y2="376.347" gradientUnits="userSpaceOnUse">
<stop stop-color="#FF9900"/>
<stop offset="1" stop-color="#D65C2B"/>
</linearGradient>
<linearGradient id="paint3_linear_25_632" x1="114.275" y1="132.298" x2="205.031" y2="256.092" gradientUnits="userSpaceOnUse">
<stop stop-color="#FF9900"/>
<stop offset="1" stop-color="#D65C2B"/>
</linearGradient>
<clipPath id="clip0_25_632">
<rect width="270" height="360" rx="24" fill="white"/>
</clipPath>
</defs>
</svg>
