<svg width="20" height="20" viewBox="0 0 20 20" fill="none" xmlns="http://www.w3.org/2000/svg">
<path d="M16.5349 6.10106V6.56521H15.6653V6.33069C15.6653 5.8812 15.4454 5.66134 14.9959 5.66134H4.26175C3.81227 5.66134 3.59241 5.8812 3.59241 6.33069V13.5471H8.49288V13.8695C8.49288 14.2383 8.55678 14.5668 8.67981 14.8467H1.34493C0.988264 14.8467 0.700001 14.5584 0.700001 14.1969C0.700001 13.8353 0.988264 13.5471 1.34493 13.5471H2.72273V6.10106C2.72273 5.24116 3.2162 4.79655 4.03702 4.79655H15.2206C16.0757 4.79655 16.5349 5.24116 16.5349 6.10106Z" fill="white"/>
<path d="M10.6179 15.2034H17.9515C18.8358 15.2034 19.3 14.7441 19.3 13.8695V8.68569C19.3 7.80623 18.8358 7.34696 17.9515 7.34696H10.6179C9.73357 7.34696 9.27429 7.80623 9.27429 8.68569V13.8695C9.27429 14.749 9.73357 15.2034 10.6179 15.2034ZM10.6228 14.4412C10.227 14.4412 10.0365 14.2702 10.0365 13.85V8.70032C10.0365 8.28504 10.227 8.10915 10.6228 8.10915H17.9418C18.3326 8.10915 18.5329 8.28504 18.5329 8.70032V13.85C18.5329 14.2702 18.3326 14.4412 17.9418 14.4412H10.6228ZM12.6357 13.9379H15.9337C16.0852 13.9379 16.1975 13.8304 16.1975 13.6741C16.1975 13.5178 16.0852 13.4103 15.9337 13.4103H12.6357C12.4843 13.4103 12.3719 13.5178 12.3719 13.6741C12.3719 13.8304 12.4843 13.9379 12.6357 13.9379Z" fill="white"/>
</svg>
