<svg width="20" height="20" viewBox="0 0 20 20" fill="none" xmlns="http://www.w3.org/2000/svg">
<path d="M17.3621 17.7646C17.6742 18.0816 18.1861 18.0754 18.4733 17.7646C18.773 17.4476 18.7792 16.9689 18.4733 16.6581L10.7823 8.9747C10.4764 8.66388 9.95826 8.66388 9.67108 8.9747C9.36515 9.28552 9.37142 9.77663 9.67108 10.0812L17.3621 17.7646ZM17.618 17.2673L12.5926 12.2569L12.9547 11.8964L17.9801 16.913C18.1174 17.0497 18.1487 17.1865 18.0238 17.3232C17.8989 17.4352 17.7617 17.4103 17.618 17.2673Z" fill="white"/>
<path d="M7.31757 17.6962C7.44867 17.6962 7.53609 17.603 7.55478 17.4663C7.84196 15.3278 7.91063 15.2967 10.1018 14.9238C10.2516 14.9051 10.3391 14.8305 10.3391 14.6937C10.3391 14.5632 10.2516 14.4762 10.1268 14.4576C7.92311 14.0348 7.84196 14.0535 7.55478 11.915C7.53609 11.7783 7.44867 11.6913 7.31757 11.6913C7.19271 11.6913 7.09907 11.7783 7.08659 11.9089C6.78693 14.0784 6.73699 14.1156 4.50835 14.4576C4.38973 14.47 4.2961 14.5632 4.2961 14.6937C4.2961 14.8243 4.38973 14.9051 4.50835 14.9238C6.73699 15.3527 6.78069 15.3402 7.08659 17.4787C7.09907 17.603 7.19271 17.6962 7.31757 17.6962ZM3.49703 10.765C3.59067 10.765 3.64685 10.6967 3.66558 10.6096C3.95275 9.14259 3.96523 9.02449 5.53215 8.75095C5.62579 8.73228 5.68822 8.67633 5.68822 8.5769C5.68822 8.47742 5.62579 8.42146 5.53215 8.40285C3.96523 8.12931 3.95275 8.01122 3.66558 6.54414C3.64685 6.45711 3.59067 6.38873 3.49703 6.38873C3.40339 6.38873 3.34096 6.45711 3.32848 6.54414C3.04131 8.01122 3.02882 8.12931 1.46191 8.40285C1.36202 8.42146 1.29959 8.47742 1.29959 8.5769C1.29959 8.67633 1.36202 8.73228 1.46191 8.75095C3.02882 9.02449 3.04131 9.14259 3.32848 10.6096C3.34096 10.6967 3.40339 10.765 3.49703 10.765ZM7.84196 5.7298C7.92311 5.7298 7.96055 5.67385 7.97931 5.59926C8.254 4.34977 8.254 4.26896 9.57744 4.00788C9.65859 3.98923 9.71479 3.94571 9.71479 3.8649C9.71479 3.78409 9.65859 3.73436 9.57744 3.72193C8.254 3.45462 8.254 3.38002 7.97931 2.13054C7.96055 2.04973 7.92311 2 7.84196 2C7.7608 2 7.71709 2.04973 7.6984 2.13054C7.4237 3.38002 7.42991 3.45462 6.10024 3.72193C6.01908 3.73436 5.96914 3.78409 5.96914 3.8649C5.96914 3.9395 6.01908 3.98923 6.10024 4.00788C7.42991 4.26896 7.4237 4.34977 7.6984 5.59926C7.71709 5.67385 7.7608 5.7298 7.84196 5.7298ZM14.3905 8.48985C14.4842 8.48985 14.5466 8.42771 14.5591 8.33447C14.8463 6.87361 14.865 6.75549 16.4257 6.47576C16.5256 6.46333 16.588 6.40117 16.588 6.30792C16.588 6.20846 16.5256 6.15252 16.4257 6.13386C14.865 5.85413 14.8463 5.73602 14.5591 4.27518C14.5466 4.18194 14.4842 4.11977 14.3905 4.11977C14.2969 4.11977 14.2407 4.18194 14.222 4.27518C13.9348 5.73602 13.9224 5.85413 12.3555 6.13386C12.2618 6.15252 12.1994 6.20846 12.1994 6.30792C12.1994 6.40117 12.2618 6.46333 12.3555 6.47576C13.9224 6.75549 13.9348 6.87361 14.222 8.33447C14.2407 8.42771 14.2969 8.48985 14.3905 8.48985Z" fill="white"/>
</svg>
