<svg width="20" height="20" viewBox="0 0 20 20" fill="none" xmlns="http://www.w3.org/2000/svg">
<path d="M14.0392 5.14795L14.3242 6.7691H13.5048L13.2514 5.3301C13.1375 4.68801 12.7277 4.41934 12.113 4.52863L4.15294 5.92664C3.52906 6.04505 3.24673 6.43212 3.36058 7.07875L4.31232 12.4795C4.42616 13.1216 4.8269 13.3949 5.45076 13.2856L5.6739 13.2462V14.0657L5.57827 14.0825C4.4125 14.2874 3.72488 13.8093 3.52451 12.6617L2.55911 7.17439C2.35874 6.02683 2.84144 5.34376 3.99811 5.13884L11.9855 3.73172C13.1467 3.5268 13.8388 4.0095 14.0392 5.14795Z" fill="white"/>
<path d="M7.4453 15.8496H15.5556C16.7305 15.8496 17.3316 15.2531 17.3316 14.0964V8.5226C17.3316 7.36592 16.7305 6.76938 15.5556 6.76938H7.4453C6.26585 6.76938 5.67386 7.36137 5.67386 8.5226V14.0964C5.67386 15.2622 6.26585 15.8496 7.4453 15.8496ZM7.45893 15.0436C6.82597 15.0436 6.47988 14.7066 6.47988 14.0555V8.56812C6.47988 7.91238 6.82597 7.5754 7.45893 7.5754H15.5419C16.1658 7.5754 16.521 7.91238 16.521 8.56812V14.0555C16.521 14.7066 16.1658 15.0436 15.5419 15.0436H7.45893ZM7.45441 15.5673H15.4508C16.439 15.5673 16.9536 15.0664 16.9536 14.0782V13.6684L14.2486 11.1273C14.0119 10.9088 13.7295 10.7949 13.4335 10.7949C13.133 10.7949 12.878 10.8997 12.6275 11.1228L10.2413 13.2176L9.30778 12.366C9.08009 12.1611 8.84787 12.0609 8.58829 12.0609C8.34692 12.0609 8.13291 12.1611 7.90521 12.3614L5.94709 14.0828C5.94709 15.0664 6.46622 15.5673 7.45441 15.5673Z" fill="white"/>
<path d="M9.84544 11.2407C10.533 11.2407 11.0931 10.6714 11.0931 9.97927C11.0931 9.30077 10.533 8.72699 9.84544 8.72699C9.15326 8.72699 8.59769 9.30077 8.59769 9.97927C8.59769 10.6714 9.15326 11.2407 9.84544 11.2407Z" fill="white"/>
</svg>
