<svg width="20" height="20" viewBox="0 0 20 20" fill="none" xmlns="http://www.w3.org/2000/svg">
<path d="M10 3.55432C10.4314 3.55432 10.7803 3.21174 10.7803 2.78033C10.7803 2.34258 10.4314 2 10 2C9.56858 2 9.21962 2.34258 9.21962 2.78033C9.21962 3.21174 9.56858 3.55432 10 3.55432ZM15.1071 5.66693C15.5448 5.66693 15.8874 5.32434 15.8874 4.88659C15.8874 4.45519 15.5448 4.10626 15.1071 4.10626C14.6756 4.10626 14.333 4.45519 14.333 4.88659C14.333 5.32434 14.6756 5.66693 15.1071 5.66693ZM17.2196 10.774C17.6574 10.774 18 10.4314 18 10C18 9.56226 17.6574 9.21962 17.2196 9.21962C16.7883 9.21962 16.4393 9.56226 16.4393 10C16.4393 10.4314 16.7883 10.774 17.2196 10.774ZM15.1071 15.8874C15.5448 15.8874 15.8874 15.5384 15.8874 15.1071C15.8874 14.6756 15.5448 14.3267 15.1071 14.3267C14.6756 14.3267 14.333 14.6756 14.333 15.1071C14.333 15.5384 14.6756 15.8874 15.1071 15.8874ZM10 18C10.4314 18 10.7803 17.651 10.7803 17.2196C10.7803 16.7819 10.4314 16.4393 10 16.4393C9.56858 16.4393 9.21962 16.7819 9.21962 17.2196C9.21962 17.651 9.56858 18 10 18ZM4.89294 15.8874C5.32434 15.8874 5.66693 15.5384 5.66693 15.1071C5.66693 14.6756 5.32434 14.3267 4.89294 14.3267C4.45519 14.3267 4.1126 14.6756 4.1126 15.1071C4.1126 15.5384 4.45519 15.8874 4.89294 15.8874ZM2.78033 10.774C3.21174 10.774 3.56066 10.4314 3.56066 10C3.56066 9.56226 3.21174 9.21962 2.78033 9.21962C2.34258 9.21962 2 9.56226 2 10C2 10.4314 2.34258 10.774 2.78033 10.774ZM4.89294 5.66693C5.32434 5.66693 5.66693 5.32434 5.66693 4.88659C5.66693 4.45519 5.32434 4.10626 4.89294 4.10626C4.45519 4.10626 4.1126 4.45519 4.1126 4.88659C4.1126 5.32434 4.45519 5.66693 4.89294 5.66693Z" fill="white"/>
<path d="M9.99995 14.108C12.2454 14.108 14.108 12.2439 14.108 10.0032C14.108 7.75596 12.2454 5.89183 9.99995 5.89183C7.75451 5.89183 5.89183 7.75596 5.89183 10.0032C5.89183 12.2439 7.75451 14.108 9.99995 14.108ZM9.99995 13.0356C8.3414 13.0356 6.96989 11.663 6.96989 10.0032C6.96989 8.34967 8.3414 6.96435 9.99995 6.96435C11.6585 6.96435 13.03 8.34332 13.03 10.0032C13.03 11.663 11.6585 13.0356 9.99995 13.0356Z" fill="white"/>
</svg>
