<svg width="57" height="58" viewBox="0 0 57 58" fill="none" xmlns="http://www.w3.org/2000/svg">
<rect x="56.5685" y="29" width="40" height="40" rx="20" transform="rotate(135 56.5685 29)" fill="#FEB101"/>
<path d="M19.3866 32.08L27.9611 40.6285C28.3657 41.0331 28.9138 41.0461 29.3314 40.6285L37.8995 32.0605C38.2976 31.6624 38.2715 31.0882 37.9321 30.7488C37.5863 30.403 36.9924 30.4225 36.6531 30.7619L33.2663 34.1487L29.4163 38.2206L29.5729 35.3494L29.5664 17.9457C29.5664 17.6847 29.462 17.4498 29.3119 17.2996C28.9725 16.9603 28.3395 16.9407 27.9806 17.2996C27.824 17.4563 27.7327 17.6782 27.7327 17.9392L27.7327 35.3494L27.8763 38.2336L24.359 34.4684L20.6525 30.7619C20.3131 30.4226 19.7128 30.3964 19.3604 30.7489C19.008 31.1012 19.0015 31.695 19.3866 32.08Z" fill="#161616"/>
</svg>
