<svg width="53" height="51" viewBox="0 0 53 51" fill="none" xmlns="http://www.w3.org/2000/svg">
<path d="M16.7865 27.2471C16.7847 30.1996 16.7892 33.1501 16.8 36.0986C16.8171 40.7061 18.4479 45.1977 22.4247 47.962" stroke="#161616" stroke-width="2"/>
<path d="M38.2176 40.2154L38.1321 39.5644C38.1314 39.5588 38.1295 39.5535 38.1265 39.5486C38.1235 39.5438 38.1195 39.5396 38.1148 39.5364C38.1101 39.5331 38.1047 39.5308 38.099 39.5296C38.0933 39.5285 38.0875 39.5284 38.0818 39.5296C37.2045 39.7027 36.3187 39.8645 35.4246 40.015C33.1461 40.3976 30.0482 40.7514 28.3994 38.7139" stroke="#161616" stroke-width="2"/>
<path d="M38.3271 18.2753L38.3199 17.5433C38.3193 17.5125 38.3031 17.4971 38.2713 17.4971L28.0708 17.4962" stroke="#161616" stroke-width="2"/>
<path d="M27.4648 7.43237L27.4639 17.4534C27.4639 17.4632 27.4678 17.4726 27.4749 17.4796C27.4819 17.4866 27.4915 17.4907 27.5016 17.4909L28.071 17.4961" stroke="#161616" stroke-width="2"/>
<path d="M27.4646 7.43236L27.4583 6.8659C27.4581 6.84178 27.4479 6.81873 27.4301 6.80176C27.4122 6.78478 27.3881 6.77527 27.363 6.77527H16.8323C16.8006 6.77527 16.7847 6.79095 16.7847 6.82233L16.7856 17.47C16.7856 17.4762 16.7829 17.4822 16.7782 17.4866C16.7735 17.491 16.7671 17.4935 16.7604 17.4935H1.04318C1.01499 17.4935 1.0009 17.5072 1.0009 17.5345C0.9997 27.9056 0.9997 38.2767 1.0009 48.6478C1.0009 48.7076 1.0084 48.8067 1.02339 48.945C1.02639 48.9746 1.04318 48.9903 1.07376 48.992L1.58379 49.0191" stroke="#161616" stroke-width="2"/>
<path d="M38.3273 18.2753L38.3264 26.4819C38.3264 26.515 38.3093 26.5316 38.2751 26.5316L27.4918 26.5307C27.4836 26.5307 27.4759 26.5339 27.4701 26.5394C27.4644 26.545 27.4612 26.5525 27.4612 26.5604C27.46 29.582 27.4603 32.6046 27.4621 35.628C27.463 36.7226 27.6923 37.8372 28.3994 38.7139" stroke="#161616" stroke-width="2"/>
<path d="M38.2176 40.2155L39.3015 48.3663C39.3035 48.3808 39.3004 48.3954 39.2925 48.4078C39.2846 48.4202 39.2725 48.4296 39.2583 48.4343C36.0246 49.4827 32.8493 50.0657 29.3088 49.9751C26.7542 49.91 24.4595 49.239 22.4248 47.962" stroke="#161616" stroke-width="2"/>
<path d="M16.7862 27.2471L16.7808 26.576C16.7802 26.5476 16.7655 26.5333 16.7367 26.5333L11.7228 26.5272C11.688 26.5272 11.6706 26.5438 11.6706 26.5769L11.6715 48.952C11.6715 48.9684 11.6647 48.9841 11.6526 48.9957C11.6404 49.0073 11.624 49.0138 11.6068 49.0138L1.5835 49.0191" stroke="#161616" stroke-width="2"/>
<path d="M9.78465 6.89033L1.5613 13.1981L1.06117 13.5798C1.05578 13.584 1.04926 13.5866 1.04237 13.5874C1.03547 13.5881 1.02848 13.5869 1.02219 13.5839C1.0159 13.5809 1.01057 13.5762 1.0068 13.5704C1.00304 13.5646 1.00099 13.5579 1.0009 13.551L1 0.042295C0.999912 0.0343748 1.00214 0.0265925 1.00644 0.0198532C1.01074 0.0131139 1.01692 0.00769417 1.02427 0.00422519C1.03162 0.000756203 1.03983 -0.0006197 1.04796 0.000257178C1.05608 0.00113406 1.06378 0.00422768 1.07016 0.00917855C3.9558 2.23027 6.83275 4.4473 9.701 6.66026C9.74778 6.69628 9.78795 6.73782 9.82153 6.78488C9.84012 6.81103 9.83803 6.83543 9.81524 6.85809L9.78465 6.89033Z" fill="#FEB101"/>
<path d="M52.9865 11.5379V14.3153C52.9865 14.3422 52.9797 14.3687 52.9667 14.3926C52.9537 14.4164 52.9348 14.4369 52.9118 14.4521L48.7561 17.2304C48.7498 17.2346 48.7445 17.2401 48.7407 17.2465C48.7369 17.2529 48.7346 17.2601 48.7341 17.2675C48.7336 17.2749 48.7348 17.2823 48.7377 17.2891C48.7405 17.296 48.745 17.3021 48.7507 17.3071L49.4469 17.9215L49.903 18.3354C49.9573 18.3847 50.0293 18.4121 50.1045 18.4121L52.9406 18.413C52.951 18.413 52.9609 18.4169 52.9683 18.4239C52.9757 18.4309 52.98 18.4404 52.9802 18.4505L52.991 19.1999L52.9865 24.3015C52.9865 24.3415 52.9764 24.3808 52.9572 24.4161C52.9379 24.4513 52.9099 24.4814 52.8759 24.5037L49.5773 26.6702C49.5549 26.6853 49.5365 26.7053 49.5238 26.7287C49.5111 26.7521 49.5045 26.778 49.5045 26.8044L49.4982 28.034C49.4982 28.0493 49.5044 28.0639 49.5156 28.0747C49.5267 28.0855 49.5418 28.0916 49.5575 28.0916L50.2025 28.0951L52.9388 28.1003C52.9527 28.1003 52.9659 28.1057 52.9757 28.1153C52.9855 28.125 52.991 28.1381 52.991 28.1517L52.9892 28.7957L52.9856 33.6725C52.9856 33.719 52.9631 33.7512 52.9181 33.7692L50.9833 34.544C50.9668 34.5504 50.9527 34.5615 50.9427 34.5758C50.9328 34.5901 50.9275 34.6069 50.9275 34.6241L50.9302 38.9083C50.9302 38.9408 50.9458 38.9629 50.977 38.9745L51.6975 39.2455L52.9145 39.7353C52.9655 39.7557 52.9913 39.7925 52.9919 39.846L52.9955 40.1885L53 42.9929C53 43.0678 52.9643 43.0905 52.8929 43.0609L47.7234 40.9057C47.7138 40.9022 47.7066 40.9048 47.7018 40.9135L47.6902 40.9353C47.6896 40.9365 47.6899 40.9377 47.6911 40.9388C48.1516 41.2113 48.5282 41.5677 48.8208 42.0081L48.9423 42.199C49.4094 43.0019 49.6556 43.8734 49.6808 44.8134C49.6976 45.4443 49.7021 46.0904 49.6943 46.7515C49.6942 46.761 49.696 46.7704 49.6996 46.7792C49.7033 46.7879 49.7087 46.7959 49.7156 46.8026C49.7224 46.8094 49.7306 46.8147 49.7396 46.8184C49.7486 46.822 49.7583 46.8239 49.768 46.8239L52.9334 46.8282C52.958 46.8643 52.9778 46.8866 52.9928 46.8953L52.9802 49.9237C52.9802 49.9667 52.958 49.9882 52.9136 49.9882H41.7156C41.6412 50.0027 41.5723 50.0039 41.5087 49.9917C41.4904 49.9881 41.474 49.9785 41.4622 49.9645C41.4504 49.9505 41.444 49.933 41.4439 49.915C41.4343 48.1546 41.437 46.4032 41.452 44.6609C41.4568 44.0532 41.6001 43.4077 41.882 42.7245C42.4433 41.3627 43.4684 40.5856 44.9574 40.3933C45.5673 40.323 46.1622 40.3654 46.7421 40.5205C46.7451 40.5217 46.7472 40.5205 46.7484 40.517C46.749 40.5159 46.7493 40.5144 46.7493 40.5127C46.7511 40.5074 46.749 40.5037 46.743 40.5013L42.0574 38.5431L41.4259 38.273C41.4061 38.2644 41.3892 38.2503 41.3774 38.2325C41.3656 38.2148 41.3593 38.194 41.3594 38.1728L41.3612 35.2899C41.3612 35.2283 41.39 35.1854 41.4475 35.161L48.6499 32.1579L50.7026 31.2995C50.7069 31.2982 50.7105 31.2954 50.7128 31.2917C50.7151 31.288 50.7158 31.2835 50.7149 31.2793C50.714 31.2751 50.7116 31.2713 50.7079 31.2687C50.7043 31.2662 50.6999 31.265 50.6954 31.2655L42.1608 31.2881L41.533 31.2707C41.5086 31.2702 41.4854 31.2606 41.4683 31.2439C41.4512 31.2271 41.4415 31.2045 41.4412 31.1809C41.434 29.3102 41.4364 27.442 41.4484 25.5765C41.4583 24.0889 41.9701 22.4845 43.3059 21.6592C43.4444 21.5738 43.4328 21.5454 43.2708 21.5738C43.1593 21.5939 43.037 21.6113 42.9119 21.6069C42.4388 21.5907 41.9722 21.5846 41.5123 21.5886C41.4643 21.5892 41.4403 21.5663 41.4403 21.5198L41.443 18.4487C41.443 18.4402 41.4465 18.432 41.4528 18.4259C41.459 18.4199 41.4675 18.4165 41.4763 18.4165L46.0324 18.4191C46.0779 18.4191 46.0833 18.4046 46.0485 18.3755C44.5619 17.1351 43.0927 15.9008 41.6409 14.6726C41.4904 14.5454 41.4166 14.3961 41.4196 14.2247C41.4388 13.1034 41.4439 11.9745 41.4349 10.8381C41.4348 10.8303 41.437 10.8226 41.4413 10.8159C41.4456 10.8093 41.4518 10.804 41.4592 10.8008C41.4666 10.7975 41.4748 10.7964 41.4828 10.7977C41.4908 10.7989 41.4982 10.8024 41.5042 10.8076L46.3283 15.0038C46.3492 15.0222 46.376 15.033 46.4043 15.0346C46.4326 15.0362 46.4607 15.0284 46.4839 15.0125L52.9109 10.6604C52.9185 10.6553 52.9273 10.6523 52.9365 10.6517C52.9457 10.6511 52.9549 10.653 52.9631 10.6572C52.9712 10.6613 52.978 10.6675 52.9828 10.6751C52.9876 10.6828 52.9901 10.6915 52.9901 10.7005L52.9865 11.5379ZM47.3924 21.6374C48.0131 22.034 48.6715 22.7303 48.936 23.4309C48.9391 23.4393 48.9442 23.4469 48.9508 23.4531C48.9575 23.4593 48.9656 23.4639 48.9744 23.4666C48.9833 23.4693 48.9927 23.47 49.002 23.4687C49.0112 23.4673 49.02 23.4639 49.0277 23.4588L51.7029 21.6514C51.7676 21.6078 51.7605 21.5857 51.6813 21.5851L47.4095 21.5817C47.3399 21.5817 47.3342 21.6003 47.3924 21.6374ZM44.8549 28.1003H46.8932C46.946 28.0997 46.9726 28.0741 46.9732 28.0236C46.9846 27.3491 46.9849 26.6606 46.9741 25.9582C46.9669 25.5265 46.8584 25.1518 46.6485 24.834C46.2509 24.1987 45.1454 24.1943 44.6399 24.6946C44.3305 25.0013 44.2189 25.5329 44.2144 25.9687C44.2078 26.6531 44.2123 27.3395 44.2279 28.028C44.2285 28.0587 44.2447 28.0747 44.2765 28.0759L44.8549 28.1003ZM48.3657 38.0124C48.3732 38.0152 48.3813 38.0163 48.3892 38.0154C48.3972 38.0145 48.4049 38.0118 48.4115 38.0074C48.4181 38.003 48.4236 37.9972 48.4274 37.9903C48.4311 37.9834 48.4331 37.9758 48.4332 37.968L48.4376 35.5505C48.4376 35.5427 48.4356 35.5351 48.4319 35.5282C48.4281 35.5213 48.4226 35.5154 48.416 35.5111C48.4094 35.5067 48.4017 35.504 48.3937 35.5031C48.3858 35.5022 48.3777 35.5032 48.3702 35.5061L45.2642 36.7096C45.255 36.7131 45.2472 36.7193 45.2417 36.7272C45.2362 36.7351 45.2332 36.7445 45.2332 36.754C45.2332 36.7636 45.2362 36.7729 45.2417 36.7808C45.2472 36.7887 45.255 36.7949 45.2642 36.7985L48.3657 38.0124ZM44.6318 46.8178L47.092 46.8195C47.1128 46.8195 47.1327 46.8117 47.1477 46.7977C47.1626 46.7838 47.1713 46.7647 47.172 46.7446C47.2035 45.9472 47.3025 44.9319 46.8977 44.1999C46.7292 43.8879 46.4611 43.6828 46.0935 43.5846C44.9871 43.2874 44.1865 44.0177 44.1497 45.0748C44.1299 45.639 44.1278 46.2037 44.1434 46.769C44.1446 46.7998 44.1608 46.8152 44.1919 46.8152L44.6318 46.8178Z" fill="#FEB101"/>
</svg>
