<svg width="22" height="22" viewBox="0 0 22 22" fill="none" xmlns="http://www.w3.org/2000/svg">
<rect width="21.9331" height="21.605" rx="10.8025" fill="#FEB101"/>
<path d="M4 11.0033C4 11.3558 4.29929 11.6485 4.65178 11.6485H10.3515V17.3482C10.3515 17.7007 10.6442 18 10.9967 18C11.3558 18 11.6485 17.7007 11.6485 17.3482V11.6485H17.3482C17.7007 11.6485 18 11.3558 18 11.0033C18 10.6442 17.7007 10.3515 17.3482 10.3515H11.6485V4.65178C11.6485 4.29929 11.3558 4 10.9967 4C10.6442 4 10.3515 4.29929 10.3515 4.65178V10.3515H4.65178C4.29929 10.3515 4 10.6442 4 11.0033Z" fill="#161616"/>
</svg>
