<svg width="36" height="36" viewBox="0 0 36 36" fill="none" xmlns="http://www.w3.org/2000/svg">
<path d="M4.98732 13.2076C5.61965 13.2076 5.96355 12.8502 5.96355 12.2328V8.81044C5.96355 7.25088 6.80665 6.44943 8.35974 6.44943H11.9318C12.5642 6.44943 12.9303 6.10287 12.9303 5.49637C12.9303 4.87904 12.5642 4.53247 11.9318 4.53247H8.31537C5.45324 4.53247 4 5.92959 4 8.70215V12.2328C4 12.8502 4.35499 13.2076 4.98732 13.2076ZM30.6354 13.2076C31.2789 13.2076 31.6227 12.8502 31.6227 12.2328V8.70215C31.6227 5.95124 30.1806 4.53247 27.3075 4.53247H23.691C23.0586 4.53247 22.6925 4.87904 22.6925 5.49637C22.6925 6.10287 23.0586 6.44943 23.691 6.44943H27.263C28.7828 6.44943 29.6592 7.25088 29.6592 8.81044V12.2328C29.6592 12.8502 30.0142 13.2076 30.6354 13.2076ZM8.31537 31.5H11.9318C12.5642 31.5 12.9303 31.1534 12.9303 30.5361C12.9303 29.9296 12.5642 29.583 11.9318 29.583H8.35974C6.80665 29.583 5.96355 28.7816 5.96355 27.222V23.7997C5.96355 23.1823 5.60856 22.8249 4.98732 22.8249C4.3439 22.8249 4 23.1823 4 23.7997V27.3303C4 30.1028 5.45324 31.5 8.31537 31.5ZM23.691 31.5H27.3075C30.1806 31.5 31.6227 30.0812 31.6227 27.3303V23.7997C31.6227 23.1823 31.2678 22.8249 30.6354 22.8249C30.0032 22.8249 29.6592 23.1823 29.6592 23.7997V27.222C29.6592 28.7816 28.7828 29.583 27.263 29.583H23.691C23.0586 29.583 22.6925 29.9296 22.6925 30.5361C22.6925 31.1534 23.0586 31.5 23.691 31.5Z" fill="white"/>
<path d="M10.1235 19.0667H16.4135C16.6465 19.0667 16.7907 19.2184 16.7907 19.4458L16.8018 25.5108C16.8018 26.6262 17.9999 26.7237 18.3881 25.9331L24.8668 12.4602C25.3438 11.4963 24.4896 10.684 23.5023 11.1497L9.72415 17.518C8.88104 17.897 9.03634 19.0667 10.1235 19.0667Z" fill="white"/>
</svg>
