<svg width="40" height="40" viewBox="0 0 40 40" fill="none" xmlns="http://www.w3.org/2000/svg">
<rect width="40" height="40" rx="20" fill="#FEB101"/>
<path d="M28.4695 24.1137L28.4511 12.0059C28.4511 11.4337 28.0727 11.0369 27.4821 11.0369H15.3651C14.8021 11.0369 14.4146 11.4614 14.4146 11.9413C14.4146 12.4304 14.8483 12.8364 15.3282 12.8364H20.1178L25.7195 12.6795L23.5785 14.5991L11.2769 26.9099C11.0923 27.0945 11 27.3344 11 27.5467C11 28.0266 11.4337 28.488 11.9413 28.488C12.1628 28.488 12.3843 28.3957 12.5688 28.2111L24.8797 15.9003L26.8177 13.7593L26.6424 18.9088V24.1506C26.6424 24.6305 27.0483 25.0734 27.5468 25.0734C28.0451 25.0734 28.4695 24.6582 28.4695 24.1137Z" fill="#FEFEFE"/>
</svg>
