<svg width="30" height="30" viewBox="0 0 30 30" fill="none" xmlns="http://www.w3.org/2000/svg">
<rect x="-0.00134277" width="30.0027" height="30" rx="15" fill="white"/>
<path d="M15.7452 8C16.9859 8.00247 17.2535 8.01298 17.8887 8.04208C18.6344 8.07623 19.1439 8.19293 19.5879 8.36655C20.049 8.54586 20.4389 8.78494 20.8289 9.17488C21.2159 9.56196 21.455 9.95474 21.6343 10.413C21.8051 10.857 21.9247 11.3665 21.9588 12.1122C21.9904 12.8027 22.0001 13.0588 22.0014 14.6022V15.3943C22.0001 16.9378 21.9904 17.1939 21.9588 17.8843C21.9247 18.6301 21.808 19.1395 21.6343 19.5835C21.455 20.0446 21.2159 20.4346 20.826 20.8245C20.4361 21.2144 20.0461 21.4535 19.5851 21.6328C19.141 21.8036 18.6316 21.9232 17.8858 21.9573C17.1401 21.9915 16.9011 22 14.9998 22L14.7952 22C13.0801 21.9993 12.8318 21.9902 12.1137 21.9573C11.368 21.9232 10.8585 21.8065 10.4145 21.6328C9.9534 21.4535 9.56347 21.2144 9.17353 20.8245C8.7836 20.4346 8.54452 20.0446 8.3652 19.5835C8.19443 19.1395 8.07488 18.6301 8.04073 17.8843C8.01164 17.2491 8.00113 16.9815 7.99866 15.7409V14.2556C8.00113 13.015 8.01164 12.7474 8.04073 12.1122C8.07488 11.3665 8.19158 10.857 8.3652 10.413C8.54452 9.95474 8.7836 9.56196 9.17353 9.17488C9.56347 8.78494 9.9534 8.54586 10.4145 8.36655C10.8585 8.19293 11.368 8.07338 12.1165 8.04208C12.7518 8.01298 13.0194 8.00247 14.26 8H15.7452ZM15.2009 9.26029H14.7987C13.1126 9.26072 12.8805 9.26722 12.1706 9.30011C11.4875 9.33142 11.1175 9.44527 10.8699 9.54204C10.5426 9.67012 10.3092 9.82097 10.0644 10.0657C9.81963 10.3105 9.66878 10.5439 9.54069 10.8712C9.44392 11.1189 9.33008 11.4889 9.29877 12.172C9.26746 12.9091 9.25892 13.1311 9.25892 15.0011C9.25892 16.8711 9.26461 17.0931 9.29877 17.8303C9.33008 18.5134 9.44392 18.8834 9.54069 19.131C9.66878 19.4583 9.81963 19.6917 10.0644 19.9365C10.3092 20.1813 10.5426 20.3321 10.8699 20.4602C11.1175 20.557 11.4875 20.6708 12.1706 20.7021C12.9078 20.7334 13.1298 20.742 14.9998 20.742L15.2009 20.7419C16.8869 20.7415 17.1191 20.735 17.8289 20.7021C18.512 20.6708 18.882 20.557 19.1297 20.4602C19.457 20.3321 19.6904 20.1813 19.9351 19.9365C20.1799 19.6917 20.3308 19.4583 20.4588 19.131C20.5556 18.8834 20.6695 18.5134 20.7008 17.8303C20.7321 17.0931 20.7406 16.8711 20.7406 15.0011L20.7406 14.8C20.7402 13.114 20.7337 12.8818 20.7008 12.172C20.6695 11.4889 20.5556 11.1189 20.4588 10.8712C20.3308 10.5439 20.1799 10.3105 19.9351 10.0657C19.6904 9.82097 19.457 9.67012 19.1297 9.54204C18.882 9.44527 18.512 9.33142 17.8289 9.30011C17.0918 9.26596 16.8697 9.26026 14.9998 9.26026L15.2009 9.26029ZM14.9998 11.4063C16.9864 11.4063 18.5946 13.0173 18.5946 15.0011C18.5946 16.9849 16.9836 18.5959 14.9998 18.5959C13.0159 18.5959 11.405 16.9878 11.405 15.0011C11.405 13.0144 13.0131 11.4063 14.9998 11.4063ZM14.9998 12.6672C13.7104 12.6672 12.6659 13.7118 12.6659 15.0011C12.6659 16.2905 13.7104 17.335 14.9998 17.335C16.2891 17.335 17.3337 16.2905 17.3337 15.0011C17.3337 13.7118 16.2891 12.6672 14.9998 12.6672ZM18.7397 10.4244C19.2034 10.4244 19.5794 10.8003 19.5794 11.264C19.5794 11.7277 19.2034 12.1036 18.7397 12.1036C18.276 12.1036 17.9001 11.7277 17.9001 11.264C17.9001 10.8003 18.276 10.4244 18.7397 10.4244Z" fill="#161616"/>
</svg>
