<svg width="20" height="20" viewBox="0 0 20 20" fill="none" xmlns="http://www.w3.org/2000/svg">
<path d="M11.0644 0C12.8364 0.00353494 13.2186 0.0185436 14.1259 0.0601076C15.191 0.1089 15.9187 0.275608 16.5529 0.523637C17.2114 0.779798 17.7684 1.12135 18.3253 1.67839C18.8782 2.23138 19.2197 2.79249 19.4758 3.44712C19.7197 4.08143 19.8904 4.80925 19.9392 5.87455C19.9844 6.86095 19.9982 7.22684 20 9.43177V10.5633C19.9982 12.7682 19.9844 13.1341 19.9392 14.1205C19.8904 15.1858 19.7238 15.9136 19.4758 16.5479C19.2197 17.2066 18.8782 17.7637 18.3213 18.3207C17.7643 18.8778 17.2074 19.2193 16.5488 19.4755C15.9146 19.7194 15.1869 19.8902 14.1218 19.939C13.0567 19.9878 12.7153 20 9.99966 20L9.70754 20C7.25778 19.999 6.90313 19.986 5.87748 19.939C4.81238 19.8902 4.0847 19.7235 3.45052 19.4755C2.79195 19.2193 2.23501 18.8778 1.67807 18.3207C1.12113 17.7637 0.779648 17.2066 0.523536 16.5479C0.27962 15.9136 0.108875 15.1858 0.0600922 14.1205C0.0185362 13.213 0.00353426 12.8307 0 11.0584V8.93664C0.00353426 7.16432 0.0185362 6.78204 0.0600922 5.87455C0.108875 4.80925 0.275555 4.08143 0.523536 3.44712C0.779648 2.79249 1.12113 2.23138 1.67807 1.67839C2.23501 1.12135 2.79195 0.779798 3.45052 0.523637C4.0847 0.275608 4.81239 0.104834 5.88155 0.0601076C6.78886 0.0185436 7.17107 0.00353494 8.94304 0H11.0644ZM10.2869 1.80041H9.71243C7.30429 1.80103 6.9727 1.81032 5.95879 1.8573C4.98313 1.90203 4.45464 2.06467 4.10096 2.20291C3.63346 2.38589 3.30011 2.60139 2.9505 2.95107C2.60088 3.30075 2.38542 3.63416 2.20249 4.10176C2.06427 4.4555 1.90166 4.98409 1.85694 5.95994C1.81222 7.01305 1.80003 7.3302 1.80003 10.0016C1.80003 12.673 1.80816 12.9901 1.85694 14.0432C1.90166 15.0191 2.06427 15.5477 2.20249 15.9014C2.38542 16.369 2.60088 16.7024 2.9505 17.0521C3.30011 17.4018 3.63346 17.6173 4.10096 17.8003C4.45464 17.9385 4.98313 18.1012 5.95879 18.1459C7.01169 18.1906 7.32879 18.2028 9.99966 18.2028L10.2869 18.2028C12.695 18.2022 13.0266 18.1929 14.0405 18.1459C15.0162 18.1012 15.5447 17.9385 15.8984 17.8003C16.3659 17.6173 16.6992 17.4018 17.0488 17.0521C17.3984 16.7024 17.6139 16.369 17.7968 15.9014C17.9351 15.5477 18.0977 15.0191 18.1424 14.0432C18.1871 12.9901 18.1993 12.673 18.1993 10.0016L18.1993 9.7143C18.1986 7.3057 18.1894 6.97404 18.1424 5.95994C18.0977 4.98409 17.9351 4.4555 17.7968 4.10176C17.6139 3.63416 17.3984 3.30075 17.0488 2.95107C16.6992 2.60139 16.3659 2.38589 15.8984 2.20291C15.5447 2.06467 15.0162 1.90203 14.0405 1.8573C12.9876 1.80851 12.6705 1.80038 9.99966 1.80038L10.2869 1.80041ZM9.99966 4.86618C12.8372 4.86618 15.1341 7.16756 15.1341 10.0016C15.1341 12.8356 12.8332 15.137 9.99966 15.137C7.16618 15.137 4.86524 12.8397 4.86524 10.0016C4.86524 7.16349 7.16211 4.86618 9.99966 4.86618ZM9.99966 6.66743C8.1581 6.66743 6.66614 8.15967 6.66614 10.0016C6.66614 11.8435 8.1581 13.3358 9.99966 13.3358C11.8412 13.3358 13.3332 11.8435 13.3332 10.0016C13.3332 8.15967 11.8412 6.66743 9.99966 6.66743ZM15.3414 3.46339C16.0037 3.46339 16.5407 4.00042 16.5407 4.66287C16.5407 5.32533 16.0037 5.86236 15.3414 5.86236C14.6791 5.86236 14.1422 5.32533 14.1422 4.66287C14.1422 4.00042 14.6791 3.46339 15.3414 3.46339Z" fill="#161616"/>
</svg>
