<svg width="30" height="30" viewBox="0 0 30 30" fill="none" xmlns="http://www.w3.org/2000/svg">
<rect x="-0.00134277" width="30" height="30" rx="15" fill="#FEFEFE"/>
<path fill-rule="evenodd" clip-rule="evenodd" d="M19.9588 10.0344C18.6429 8.72315 16.8928 8.00067 15.0281 8C11.1856 8 8.05849 11.1118 8.05715 14.9368C8.05648 16.1596 8.37769 17.3531 8.98768 18.4049L7.99866 22L11.694 21.0353C12.7121 21.5882 13.8586 21.8792 15.0251 21.8796H15.0281C18.8698 21.8796 21.9973 18.7674 21.9987 14.9424C21.9993 13.0887 21.275 11.346 19.9588 10.0347V10.0344ZM15.0281 20.708H15.0257C13.9862 20.7077 12.9665 20.4296 12.0767 19.9044L11.8652 19.7793L9.6722 20.3518L10.2575 18.2239L10.1197 18.0057C9.53984 17.0876 9.23334 16.0265 9.23401 14.9371C9.23535 11.7581 11.8344 9.17154 15.0304 9.17154C16.5779 9.17221 18.0326 9.77262 19.1265 10.8627C20.2205 11.9524 20.8225 13.4014 20.8218 14.9418C20.8204 18.1211 18.2214 20.7077 15.0281 20.7077V20.708ZM18.206 16.3898C18.0319 16.3029 17.1756 15.8838 17.0158 15.8259C16.856 15.768 16.7401 15.7391 16.6241 15.9128C16.5081 16.0864 16.1742 16.4769 16.0726 16.5923C15.971 16.7081 15.8693 16.7224 15.6952 16.6356C15.5211 16.5487 14.9599 16.3658 14.2944 15.7754C13.7767 15.3157 13.427 14.7482 13.3255 14.5745C13.2238 14.4009 13.3148 14.3071 13.4016 14.221C13.4799 14.1431 13.5758 14.0184 13.663 13.9173C13.7503 13.8161 13.779 13.7436 13.8372 13.6282C13.8953 13.5124 13.8663 13.4113 13.8228 13.3245C13.7793 13.2377 13.4311 12.3845 13.2857 12.0375C13.1443 11.6996 13.0006 11.7455 12.894 11.7398C12.7923 11.7348 12.6764 11.7338 12.5601 11.7338C12.4437 11.7338 12.2552 11.7771 12.0954 11.9507C11.9357 12.1243 11.4858 12.5438 11.4858 13.3967C11.4858 14.2496 12.1098 15.0742 12.1971 15.19C12.2843 15.3057 13.4254 17.0564 15.1725 17.8075C15.5879 17.9861 15.9125 18.0929 16.1655 18.1727C16.5826 18.3047 16.9623 18.2861 17.2625 18.2415C17.5971 18.1917 18.2929 17.8221 18.438 17.4173C18.583 17.0124 18.583 16.6652 18.5396 16.593C18.4962 16.5208 18.3799 16.4772 18.2057 16.3904L18.206 16.3898Z" fill="#161616"/>
</svg>
