<svg width="20" height="20" viewBox="0 0 20 20" fill="none" xmlns="http://www.w3.org/2000/svg">
<path fill-rule="evenodd" clip-rule="evenodd" d="M17.091 2.90629C15.2098 1.03307 12.7078 0.000950389 10.042 0C4.54883 0 0.0782082 4.44545 0.0762968 9.90971C0.0753411 11.6565 0.534541 13.3615 1.40659 14.8641L-0.00732422 20L5.27562 18.6219C6.73109 19.4117 8.37006 19.8275 10.0377 19.828H10.042C15.5342 19.828 20.0054 15.382 20.0073 9.91779C20.0082 7.26956 18.9727 4.77999 17.091 2.90677V2.90629ZM10.042 18.1543H10.0387C8.55259 18.1539 7.09475 17.7566 5.82276 17.0063L5.52027 16.8276L2.3852 17.6454L3.22189 14.6056L3.02502 14.2938C2.19597 12.9823 1.7578 11.4664 1.75875 9.91021C1.76067 5.36876 5.47631 1.67364 10.0454 1.67364C12.2577 1.67459 14.3373 2.53232 15.9012 4.08953C17.4652 5.64627 18.3258 7.71624 18.3248 9.91685C18.3229 14.4588 14.6073 18.1539 10.042 18.1539V18.1543ZM14.5853 11.9854C14.3363 11.8614 13.1121 11.2626 12.8837 11.1799C12.6553 11.0972 12.4895 11.0559 12.3237 11.3039C12.1579 11.552 11.6805 12.1099 11.5353 12.2748C11.39 12.4401 11.2447 12.4606 10.9958 12.3365C10.7469 12.2125 9.94455 11.9511 8.99319 11.1077C8.25303 10.4509 7.75317 9.64029 7.60795 9.39221C7.46268 9.14418 7.59266 9.01016 7.71687 8.88709C7.82867 8.7759 7.96583 8.59771 8.09053 8.45324C8.21528 8.30877 8.25637 8.20521 8.33949 8.04028C8.42266 7.87491 8.38107 7.7305 8.31897 7.60643C8.25682 7.48242 7.75895 6.26352 7.55108 5.76791C7.34893 5.28512 7.1435 5.3507 6.99106 5.34262C6.84579 5.33549 6.68 5.33407 6.51371 5.33407C6.34742 5.33407 6.07789 5.39584 5.8495 5.6439C5.62111 5.89192 4.97793 6.49114 4.97793 7.70954C4.97793 8.92795 5.87007 10.106 5.99478 10.2714C6.11948 10.4367 7.75078 12.9377 10.2484 14.0107C10.8424 14.2658 11.3064 14.4184 11.6681 14.5324C12.2645 14.7211 12.8072 14.6945 13.2363 14.6308C13.7147 14.5595 14.7095 14.0316 14.9169 13.4532C15.1243 12.8749 15.1243 12.3788 15.0622 12.2757C15.0001 12.1726 14.8338 12.1103 14.5848 11.9863L14.5853 11.9854Z" fill="#161616"/>
</svg>
